<svg xmlns="http://www.w3.org/2000/svg" xmlns:xlink="http://www.w3.org/1999/xlink" width="30px" height="30px" viewBox="0 0 30 30" version="1.1">
<g id="surface1">
<path style=" stroke:none;fill-rule:nonzero;fill:rgb(0%,0%,0%);fill-opacity:1;" d="M 9.375 5.628906 L 9.375 7.503906 L 27.1875 7.503906 L 27.1875 11.214844 L 25.109375 17.816406 L 8.785156 17.816406 L 6.441406 0.9375 L 0.9375 0.9375 L 0.9375 2.8125 L 4.808594 2.8125 L 7.152344 19.691406 L 26.484375 19.691406 L 29.0625 11.503906 L 29.0625 5.628906 Z M 9.375 5.628906 "/>
<path style=" stroke:none;fill-rule:nonzero;fill:rgb(0%,0%,0%);fill-opacity:1;" d="M 10.371094 21.582031 C 8.300781 21.585938 6.621094 23.261719 6.621094 25.332031 C 6.621094 27.402344 8.300781 29.082031 10.371094 29.082031 C 12.441406 29.082031 14.121094 27.402344 14.121094 25.332031 C 14.117188 23.261719 12.441406 21.585938 10.371094 21.582031 Z M 10.371094 27.207031 C 9.335938 27.207031 8.496094 26.367188 8.496094 25.332031 C 8.496094 24.296875 9.335938 23.457031 10.371094 23.457031 C 11.40625 23.457031 12.246094 24.296875 12.246094 25.332031 C 12.242188 26.367188 11.40625 27.207031 10.371094 27.207031 Z M 10.371094 27.207031 "/>
<path style=" stroke:none;fill-rule:nonzero;fill:rgb(0%,0%,0%);fill-opacity:1;" d="M 23.496094 21.582031 C 21.425781 21.585938 19.746094 23.261719 19.746094 25.332031 C 19.746094 27.402344 21.425781 29.082031 23.496094 29.082031 C 25.566406 29.082031 27.246094 27.402344 27.246094 25.332031 C 27.242188 23.261719 25.566406 21.585938 23.496094 21.582031 Z M 23.496094 27.207031 C 22.460938 27.207031 21.621094 26.367188 21.621094 25.332031 C 21.621094 24.296875 22.460938 23.457031 23.496094 23.457031 C 24.53125 23.457031 25.371094 24.296875 25.371094 25.332031 C 25.367188 26.367188 24.53125 27.207031 23.496094 27.207031 Z M 23.496094 27.207031 "/>
</g>
</svg>
