<?xml version="1.0" encoding="UTF-8"?>
<svg xmlns="http://www.w3.org/2000/svg" xmlns:xlink="http://www.w3.org/1999/xlink" width="30px" height="30px" viewBox="0 0 30 30" version="1.1">
<g id="surface1">
<path style=" stroke:none;fill-rule:nonzero;fill:rgb(0%,0%,0%);fill-opacity:1;" d="M 17.664062 14.988281 L 29.78125 2.871094 C 30.042969 2.609375 30.042969 2.1875 29.78125 1.925781 L 28.050781 0.195312 C 27.925781 0.0703125 27.757812 0 27.578125 0 C 27.402344 0 27.230469 0.0703125 27.105469 0.195312 L 14.988281 12.3125 L 2.871094 0.195312 C 2.621094 -0.0546875 2.175781 -0.0546875 1.925781 0.195312 L 0.195312 1.925781 C -0.0664062 2.1875 -0.0664062 2.609375 0.195312 2.871094 L 12.316406 14.988281 L 0.195312 27.105469 C -0.0664062 27.367188 -0.0664062 27.789062 0.195312 28.050781 L 1.925781 29.78125 C 2.050781 29.90625 2.21875 29.976562 2.398438 29.976562 C 2.574219 29.976562 2.746094 29.90625 2.871094 29.78125 L 14.988281 17.664062 L 27.105469 29.78125 C 27.230469 29.90625 27.402344 29.976562 27.578125 29.976562 C 27.757812 29.976562 27.925781 29.90625 28.054688 29.78125 L 29.78125 28.050781 C 30.042969 27.789062 30.042969 27.367188 29.78125 27.105469 Z M 17.664062 14.988281 "/>
</g>
</svg>
