<?xml version="1.0" encoding="UTF-8"?>
<svg xmlns="http://www.w3.org/2000/svg" xmlns:xlink="http://www.w3.org/1999/xlink" width="15px" height="15px" viewBox="0 0 15 15" version="1.1">
<g id="surface1">
<path style=" stroke:none;fill-rule:nonzero;fill:rgb(0%,0%,0%);fill-opacity:1;" d="M 2.921875 3.25 L 2.710938 2 L 1.964844 2 C 1.851562 1.570312 1.464844 1.25 1 1.25 C 0.449219 1.25 0 1.699219 0 2.25 C 0 2.800781 0.449219 3.25 1 3.25 C 1.464844 3.25 1.851562 2.929688 1.964844 2.5 L 2.289062 2.5 L 2.414062 3.25 L 2.402344 3.25 L 3.695312 9.753906 C 3.078125 9.800781 2.566406 10.277344 2.507812 10.871094 C 2.472656 11.222656 2.585938 11.574219 2.824219 11.835938 C 3.058594 12.097656 3.398438 12.25 3.75 12.25 L 4.25 12.25 C 4.25 13.078125 4.921875 13.75 5.75 13.75 C 6.578125 13.75 7.25 13.078125 7.25 12.25 L 10 12.25 C 10 13.078125 10.671875 13.75 11.5 13.75 C 12.328125 13.75 13 13.078125 13 12.25 L 14 12.25 C 14.136719 12.25 14.25 12.136719 14.25 12 C 14.25 11.863281 14.136719 11.75 14 11.75 L 12.914062 11.75 C 12.707031 11.167969 12.152344 10.75 11.5 10.75 C 10.847656 10.75 10.292969 11.167969 10.085938 11.75 L 7.164062 11.75 C 6.957031 11.167969 6.402344 10.75 5.75 10.75 C 5.097656 10.75 4.542969 11.167969 4.335938 11.75 L 3.75 11.75 C 3.539062 11.75 3.335938 11.660156 3.195312 11.5 C 3.050781 11.34375 2.980469 11.136719 3.003906 10.921875 C 3.042969 10.546875 3.390625 10.25 3.796875 10.25 L 3.996094 10.25 C 4 10.25 4 10.25 4.003906 10.25 L 13.753906 10.25 C 14.441406 10.25 15 9.691406 15 9.003906 L 15 3.25 Z M 1 2.75 C 0.722656 2.75 0.5 2.527344 0.5 2.25 C 0.5 1.972656 0.722656 1.75 1 1.75 C 1.277344 1.75 1.5 1.972656 1.5 2.25 C 1.5 2.527344 1.277344 2.75 1 2.75 Z M 1 2.75 "/>
</g>
</svg>
