<svg xmlns="http://www.w3.org/2000/svg" xmlns:xlink="http://www.w3.org/1999/xlink" width="30px" height="30px" viewBox="0 0 30 30" version="1.1">
<g id="surface1">
<path style=" stroke:none;fill-rule:nonzero;fill:rgb(0%,0%,0%);fill-opacity:1;" d="M 15 0 C 6.703125 0 0 6.722656 0 15 C 0 23.289062 6.714844 30 15 30 C 23.324219 30 30 23.257812 30 15 C 30 6.703125 23.273438 0 15 0 Z M 22.71875 23.835938 C 20.582031 25.707031 17.871094 26.730469 15 26.730469 C 12.132812 26.730469 9.421875 25.707031 7.28125 23.835938 C 6.992188 23.582031 6.863281 23.191406 6.9375 22.816406 C 7.679688 19.207031 9.976562 16.363281 12.902344 15.425781 C 11.375 14.523438 10.328125 12.667969 10.328125 10.523438 C 10.328125 7.492188 12.417969 5.03125 15 5.03125 C 17.582031 5.03125 19.671875 7.492188 19.671875 10.523438 C 19.671875 12.667969 18.625 14.523438 17.101562 15.425781 C 20.023438 16.363281 22.324219 19.207031 23.0625 22.816406 C 23.140625 23.191406 23.007812 23.582031 22.71875 23.835938 Z M 22.71875 23.835938 "/>
</g>
</svg>
